# xmcd
#
# Track frame offsets:
#	150
#	11657
#	32302
#	68056
#	81244
#	90263
#	115990
#	135468
#	146217
#	159279
#	175729
#	189050
#	215881
#	228278
#	264609
#	275631
#	292548
#
# Disc length: 4170 seconds
#
# Revision: 1
# Processed by: cddbd v1.5.2PL0 Copyright (c) Steve Scherf et al.
# Submitted via: audiograbber 1.83.01
#
DISCID=df104811
DTITLE=Roy Clark - Timeless: The Classic Concert Performances
DYEAR=2008
DGENRE=Country
TTITLE0=Introduction - Alabama Jubilee
TTITLE1=Kansas City
TTITLE2=Thank God And Greyhound
TTITLE3=Under The Double Eagle
TTITLE4=Foggy Mountain Breakdown
TTITLE5=Orange Blossom Special
TTITLE6=Yesterday When I Was Young
TTITLE7=Green Green Grass Of Home
TTITLE8=Lawrence Welk - Hee Haw Counter - Revolution Polka
TTITLE9=Rocky Top
TTITLE10=Riders In The Sky
TTITLE11=( Medley ) Come Live With Me - Honeymoon Feeling - The Tips Of My Fing
TTITLE11=ers -  Thank God And Greyhound - Yesterday When I Was Young - I Never 
TTITLE11=Picked Cotton - Sally Was A Good Old Girl  
TTITLE12=If I Had To Do It All Over Again
TTITLE13=Dueling Banjos
TTITLE14=Back Up And Push
TTITLE15=Think Summer
TTITLE16=Malaguena
EXTD=
EXTT0=
EXTT1=
EXTT2=
EXTT3=
EXTT4=
EXTT5=
EXTT6=
EXTT7=
EXTT8=
EXTT9=
EXTT10=
EXTT11=
EXTT12=
EXTT13=
EXTT14=
EXTT15=
EXTT16=
PLAYORDER=
